HIERARCHY
ROOT Hips
{
	OFFSET 0.000000 0.000000 0.000000
	CHANNELS 6 Xposition Yposition Zposition Xrotation Yrotation Zrotation
	JOINT LeftUpLeg_virtual
	{
		OFFSET 0.000000 0.000000 0.000000
		CHANNELS 3 Xrotation Yrotation Zrotation
		JOINT LeftUpLeg
		{
			OFFSET 15.427100 -6.655098 0.678600
			CHANNELS 3 Xrotation Yrotation Zrotation
			JOINT LeftLeg
			{
				OFFSET 4.081073 -39.591068 13.024000
				CHANNELS 3 Xrotation Yrotation Zrotation
				JOINT LeftFoot
				{
					OFFSET -4.081074 -37.707932 -15.979700
					CHANNELS 3 Xrotation Yrotation Zrotation
					JOINT LeftToeBase
					{
						OFFSET 5.346399 -15.068900 20.645000
						CHANNELS 3 Xrotation Yrotation Zrotation
						JOINT LeftToe_End
						{
							OFFSET 2.754700 0.931300 11.300900
							CHANNELS 3 Xrotation Yrotation Zrotation
							End Site
							{
								OFFSET 0 0 0
							}
						}
					}
				}
			}
		}
	}
	JOINT RightUpLeg_virtual
	{
		OFFSET 0.000000 0.000000 0.000000
		CHANNELS 3 Xrotation Yrotation Zrotation
		JOINT RightUpLeg
		{
			OFFSET -15.569500 -6.655098 0.678600
			CHANNELS 3 Xrotation Yrotation Zrotation
			JOINT RightLeg
			{
				OFFSET -4.081825 -39.591045 13.023800
				CHANNELS 3 Xrotation Yrotation Zrotation
				JOINT RightFoot
				{
					OFFSET 4.081824 -37.707954 -15.979600
					CHANNELS 3 Xrotation Yrotation Zrotation
					JOINT RightToeBase
					{
						OFFSET -5.346400 -15.068900 20.645000
						CHANNELS 3 Xrotation Yrotation Zrotation
						JOINT RightToe_End
						{
							OFFSET -2.754700 0.931300 11.300900
							CHANNELS 3 Xrotation Yrotation Zrotation
							End Site
							{
								OFFSET 0 0 0
							}
						}
					}
				}
			}
		}
	}
	JOINT Spine_virtual
	{
		OFFSET 0.000000 0.000000 0.000000
		CHANNELS 3 Xrotation Yrotation Zrotation
		JOINT Spine
		{
			OFFSET -0.279200 12.230698 -2.892100
			CHANNELS 3 Xrotation Yrotation Zrotation
			JOINT Spine1
			{
				OFFSET -0.232667 10.192268 -1.242267
				CHANNELS 3 Xrotation Yrotation Zrotation
				JOINT Spine1_split
				{
					OFFSET -0.232667 10.192268 -1.242267
					CHANNELS 3 Xrotation Yrotation Zrotation
					JOINT Spine2
					{
						OFFSET -0.232667 10.192268 -1.242267
						CHANNELS 3 Xrotation Yrotation Zrotation
						JOINT Neck_virtual
						{
							OFFSET 0.000000 0.000000 0.000000
							CHANNELS 3 Xrotation Yrotation Zrotation
							JOINT Neck
							{
								OFFSET -0.418800 17.814194 8.416900
								CHANNELS 3 Xrotation Yrotation Zrotation
								JOINT Head
								{
									OFFSET 0.000000 7.031097 3.806800
									CHANNELS 3 Xrotation Yrotation Zrotation
									JOINT HeadTop_End
									{
										OFFSET 0.000000 24.646606 12.978600
										CHANNELS 3 Xrotation Yrotation Zrotation
										End Site
										{
											OFFSET 0 0 0
										}
									}
								}
							}
						}
						JOINT LeftShoulder_virtual
						{
							OFFSET 0.000000 0.000000 0.000000
							CHANNELS 3 Xrotation Yrotation Zrotation
							JOINT LeftShoulder
							{
								OFFSET 8.476499 7.247704 -3.868750
								CHANNELS 3 Xrotation Yrotation Zrotation
								JOINT LeftShoulder_split
								{
									OFFSET 8.476499 7.247704 -3.868750
									CHANNELS 3 Xrotation Yrotation Zrotation
									JOINT LeftArm
									{
										OFFSET 9.308998 -2.777710 0.208600
										CHANNELS 3 Xrotation Yrotation Zrotation
										JOINT LeftForeArm
										{
											OFFSET 29.972298 0.000000 0.000000
											CHANNELS 3 Xrotation Yrotation Zrotation
											JOINT LeftHand
											{
												OFFSET 26.026505 0.000000 0.000000
												CHANNELS 3 Xrotation Yrotation Zrotation
												End Site
												{
													OFFSET 0 0 0
												}
											}
										}
									}
								}
							}
						}
						JOINT RightShoulder_virtual
						{
							OFFSET 0.000000 0.000000 0.000000
							CHANNELS 3 Xrotation Yrotation Zrotation
							JOINT RightShoulder
							{
								OFFSET -7.570500 7.247704 -3.868750
								CHANNELS 3 Xrotation Yrotation Zrotation
								JOINT RightShoulder_split
								{
									OFFSET -7.570500 7.247704 -3.868750
									CHANNELS 3 Xrotation Yrotation Zrotation
									JOINT RightArm
									{
										OFFSET -9.308998 -2.777710 0.208500
										CHANNELS 3 Xrotation Yrotation Zrotation
										JOINT RightForeArm
										{
											OFFSET -29.972300 0.000000 0.000000
											CHANNELS 3 Xrotation Yrotation Zrotation
											JOINT RightHand
											{
												OFFSET -26.026505 0.000000 0.000000
												CHANNELS 3 Xrotation Yrotation Zrotation
												End Site
												{
													OFFSET 0 0 0
												}
											}
										}
									}
								}
							}
						}
					}
				}
			}
		}
	}
}
MOTION
Frames: 11
Frame Time: 0.03333333
0.468847 87.905411 0.458363 0.000000 0.000000 0.000000 -2.198769 -25.905413 0.613413 -22.381311 25.001918 11.951012 22.569856 8.385529 13.785356 -3.041994 0.672670 -14.970619 1.591198 -0.020895 -2.063288 0.000000 0.000000 0.000000 -2.774670 -24.609711 0.771047 -12.499564 -19.177646 -8.957031 24.424249 -0.773723 -13.027775 -14.426531 -1.621870 10.937315 -0.504384 0.468713 0.160457 0.000000 0.000000 0.000000 -1.218406 -27.064063 0.458424 4.081039 -2.172858 0.890077 0.362530 -0.869505 0.206623 1.032443 -0.462238 0.324982 0.000000 0.000000 0.000000 0.613408 -1.022630 0.262585 -1.715247 1.729414 2.918316 18.001483 24.565318 -13.088219 0.000000 0.000000 0.000000 1.194803 -0.971905 0.254127 -0.554461 2.637527 3.385115 -1.811979 0.044916 -0.174983 -53.404488 -2.168549 -48.443711 -10.854735 -86.345476 -10.232426 0.000000 0.000000 0.000000 2.040521 -0.599025 0.136992 -1.062022 -9.937806 9.186772 0.955679 2.055870 0.250022 -66.470178 64.180706 82.308281 -12.469700 85.488587 12.468049 0.000000 0.000000 0.000000 
0.458122 87.897812 0.443836 0.000000 0.000000 0.000000 -2.211526 -25.914100 0.610242 -22.389550 25.034752 11.961325 22.581707 8.357438 13.785168 -3.050874 0.657929 -14.975253 1.587119 -0.022826 -2.052438 0.000000 0.000000 0.000000 -2.785598 -24.619359 0.767588 -12.487642 -19.181085 -8.958107 24.405376 -0.788273 -13.017038 -14.421881 -1.628934 10.925743 -0.500047 0.469712 0.160407 0.000000 0.000000 0.000000 -1.229338 -27.067562 0.450483 4.088493 -2.176243 0.895102 0.368020 -0.870188 0.205686 1.030651 -0.473726 0.323975 0.000000 0.000000 0.000000 0.611912 -1.022904 0.259207 -1.715120 1.731226 2.927764 18.003028 24.556060 -13.093014 0.000000 0.000000 0.000000 1.201419 -0.973988 0.250553 -0.557716 2.624303 3.366766 -1.796509 0.061101 -0.175651 -53.371033 -2.175699 -48.487137 -10.601729 -86.373773 -9.989482 0.000000 0.000000 0.000000 2.046212 -0.597816 0.135609 -1.061604 -9.932022 9.200544 0.964527 2.065816 0.259305 -66.429846 64.171157 82.292865 -12.372788 85.438761 12.376403 0.000000 0.000000 0.000000 
0.446254 87.887764 0.426701 0.000000 0.000000 0.000000 -2.220974 -25.919963 0.600422 -22.406031 25.084206 11.977301 22.588627 8.312042 13.785285 -3.067161 0.636419 -14.963983 1.587965 -0.025389 -2.047439 0.000000 0.000000 0.000000 -2.793644 -24.617334 0.758767 -12.468053 -19.179282 -8.951229 24.391727 -0.811923 -12.997102 -14.416038 -1.637198 10.918185 -0.502173 0.471953 0.158233 0.000000 0.000000 0.000000 -1.240249 -27.066465 0.439467 4.095027 -2.179934 0.905915 0.374628 -0.870729 0.204516 1.029358 -0.489162 0.322060 0.000000 0.000000 0.000000 0.611870 -1.024903 0.255693 -1.715793 1.741956 2.943331 18.009049 24.552985 -13.104874 0.000000 0.000000 0.000000 1.205710 -0.977693 0.246251 -0.560303 2.622146 3.331985 -1.792887 0.088540 -0.152349 -53.360166 -2.166468 -48.578225 -10.136667 -86.374258 -9.536676 0.000000 0.000000 0.000000 2.050554 -0.598269 0.135254 -1.057315 -9.927370 9.231178 0.952406 2.064239 0.252672 -66.353007 64.164436 82.243551 -12.315138 85.397083 12.330279 0.000000 0.000000 0.000000 
0.435099 87.879173 0.411922 0.000000 0.000000 0.000000 -2.226441 -25.921924 0.586240 -22.432797 25.139546 11.998353 22.590608 8.252736 13.786235 -3.079789 0.612826 -14.935728 1.589147 -0.028108 -2.050054 0.000000 0.000000 0.000000 -2.797978 -24.604402 0.746598 -12.443671 -19.171146 -8.937677 24.379220 -0.842565 -12.972281 -14.411694 -1.645784 10.911911 -0.509261 0.474901 0.155282 0.000000 0.000000 0.000000 -1.247397 -27.058402 0.428372 4.098435 -2.183354 0.921686 0.382179 -0.870527 0.204072 1.024406 -0.498206 0.319737 0.000000 0.000000 0.000000 0.613992 -1.028110 0.253416 -1.716199 1.758009 2.959954 18.019029 24.553292 -13.121102 0.000000 0.000000 0.000000 1.207801 -0.982084 0.241777 -0.562277 2.629682 3.296671 -1.795739 0.123975 -0.110310 -53.360385 -2.138431 -48.700796 -9.546993 -86.354013 -8.961950 0.000000 0.000000 0.000000 2.052921 -0.600344 0.135965 -1.050278 -9.928828 9.271278 0.929313 2.054043 0.231380 -66.260246 64.165618 82.171192 -12.342344 85.382597 12.373418 0.000000 0.000000 0.000000 
0.425581 87.872276 0.394165 0.000000 0.000000 0.000000 -2.228020 -25.916267 0.570781 -22.471457 25.194135 12.020242 22.589090 8.184366 13.787662 -3.079482 0.595575 -14.890405 1.591635 -0.030693 -2.062327 0.000000 0.000000 0.000000 -2.800940 -24.579838 0.733804 -12.422393 -19.157607 -8.919666 24.368356 -0.879815 -12.945137 -14.410676 -1.655163 10.899860 -0.505984 0.477957 0.154012 0.000000 0.000000 0.000000 -1.249962 -27.041453 0.419642 4.099009 -2.186402 0.939514 0.391170 -0.869986 0.204954 1.019691 -0.506305 0.319088 0.000000 0.000000 0.000000 0.618066 -1.031848 0.253123 -1.715472 1.776760 2.971710 18.029473 24.553364 -13.137828 0.000000 0.000000 0.000000 1.208608 -0.986693 0.237805 -0.563217 2.642777 3.280167 -1.805428 0.162497 -0.075588 -53.354726 -2.090230 -48.835491 -9.029330 -86.332853 -8.460514 0.000000 0.000000 0.000000 2.053572 -0.603238 0.138169 -1.042146 -9.938864 9.310803 0.902914 2.044352 0.203981 -66.168523 64.185364 82.092453 -12.444808 85.402363 12.492850 0.000000 0.000000 0.000000 
0.417530 87.865738 0.374626 0.000000 0.000000 0.000000 -2.226496 -25.899516 0.557257 -22.524726 25.244338 12.038973 22.587632 8.112853 13.788564 -3.068286 0.591528 -14.831804 1.601371 -0.032811 -2.084713 0.000000 0.000000 0.000000 -2.803092 -24.549230 0.723698 -12.411156 -19.141112 -8.899742 24.357836 -0.921922 -12.918262 -14.415128 -1.665634 10.878354 -0.484671 0.480420 0.155868 0.000000 0.000000 0.000000 -1.251271 -27.015374 0.412829 4.098691 -2.188631 0.955300 0.402109 -0.869333 0.206968 1.017905 -0.515220 0.320992 0.000000 0.000000 0.000000 0.623721 -1.035261 0.255097 -1.715355 1.795097 2.975681 18.032936 24.547900 -13.148880 0.000000 0.000000 0.000000 1.210198 -0.990970 0.234501 -0.563060 2.655525 3.300332 -1.804842 0.200537 -0.045511 -53.332962 -2.017425 -48.964011 -8.686604 -86.341459 -8.138078 0.000000 0.000000 0.000000 2.053491 -0.605685 0.141926 -1.034766 -9.958048 9.346953 0.876219 2.036684 0.175568 -66.091069 64.228394 82.018681 -12.576227 85.443358 12.638513 0.000000 0.000000 0.000000 
0.412192 87.856445 0.353230 0.000000 0.000000 0.000000 -2.220535 -25.870451 0.548476 -22.590226 25.289426 12.050559 22.590492 8.039913 13.789208 -3.053093 0.600157 -14.768310 1.616178 -0.034525 -2.114352 0.000000 0.000000 0.000000 -2.802621 -24.513387 0.718750 -12.414556 -19.126997 -8.882064 24.354054 -0.967172 -12.894321 -14.424490 -1.677166 10.848950 -0.455807 0.481874 0.159635 0.000000 0.000000 0.000000 -1.252779 -26.983644 0.406696 4.100718 -2.189393 0.964745 0.416035 -0.868677 0.208812 1.024037 -0.521874 0.326377 0.000000 0.000000 0.000000 0.630081 -1.037249 0.258708 -1.717902 1.809681 2.971716 18.025931 24.535805 -13.149346 0.000000 0.000000 0.000000 1.214141 -0.993830 0.231835 -0.561754 2.661586 3.370830 -1.800782 0.232771 -0.029756 -53.293914 -1.916124 -49.067635 -8.615455 -86.392501 -8.088567 0.000000 0.000000 0.000000 2.053703 -0.606190 0.146986 -1.029720 -9.986467 9.382776 0.854185 2.027547 0.156659 -66.021647 64.292106 81.946643 -12.709904 85.498546 12.780654 0.000000 0.000000 0.000000 
0.410342 87.843018 0.333763 0.000000 0.000000 0.000000 -2.210452 -25.831050 0.544202 -22.666367 25.328556 12.055512 22.604381 7.963096 13.789460 -3.041845 0.615458 -14.713489 1.624979 -0.035344 -2.143641 0.000000 0.000000 0.000000 -2.797890 -24.475703 0.717809 -12.434878 -19.121992 -8.868978 24.362026 -1.012617 -12.875951 -14.436494 -1.688906 10.817596 -0.431940 0.482389 0.163219 0.000000 0.000000 0.000000 -1.253078 -26.945846 0.399259 4.108534 -2.187558 0.964889 0.432826 -0.867806 0.209335 1.037405 -0.533994 0.331629 0.000000 0.000000 0.000000 0.635540 -1.036897 0.262168 -1.725244 1.816883 2.964754 18.005997 24.512606 -13.133302 0.000000 0.000000 0.000000 1.221427 -0.994509 0.228954 -0.559760 2.658458 3.497274 -1.792519 0.260064 -0.021734 -53.255890 -1.785651 -49.135623 -8.808939 -86.489381 -8.305877 0.000000 0.000000 0.000000 2.056664 -0.602984 0.151980 -1.029098 -10.023386 9.426354 0.841668 2.011743 0.149193 -65.951822 64.363031 81.865869 -12.860748 85.576629 12.932142 0.000000 0.000000 0.000000 
0.412473 87.826431 0.314793 0.000000 0.000000 0.000000 -2.196475 -25.785322 0.542088 -22.756500 25.358705 12.061224 22.637986 7.883073 13.788308 -3.034268 0.626656 -14.678141 1.620253 -0.034982 -2.164468 0.000000 0.000000 0.000000 -2.789135 -24.433863 0.716567 -12.469520 -19.130113 -8.860470 24.384120 -1.051047 -12.867140 -14.448171 -1.698431 10.797207 -0.424491 0.482101 0.164488 0.000000 0.000000 0.000000 -1.249072 -26.906632 0.388576 4.123513 -2.180804 0.955235 0.452879 -0.865698 0.206679 1.050516 -0.545694 0.337984 0.000000 0.000000 0.000000 0.641196 -1.033573 0.263957 -1.740442 1.814721 2.961143 17.971548 24.473463 -13.095408 0.000000 0.000000 0.000000 1.231322 -0.991483 0.224520 -0.557377 2.641983 3.672182 -1.784926 0.283368 -0.024334 -53.241055 -1.644305 -49.171287 -9.225258 -86.624844 -8.749209 0.000000 0.000000 0.000000 2.063099 -0.595780 0.154712 -1.032379 -10.070449 9.493313 0.839660 1.989505 0.151761 -65.861916 64.426879 81.755916 -13.141871 85.699572 13.206062 0.000000 0.000000 0.000000 
0.419769 87.807671 0.297302 0.000000 0.000000 0.000000 -2.180857 -25.732386 0.536732 -22.864197 25.375386 12.076076 22.696532 7.803201 13.785052 -3.022320 0.627091 -14.660870 1.601566 -0.034204 -2.174186 0.000000 0.000000 0.000000 -2.775950 -24.387544 0.710386 -12.512794 -19.152672 -8.853821 24.420489 -1.077479 -12.868549 -14.458378 -1.703097 10.794977 -0.432156 0.481653 0.163338 0.000000 0.000000 0.000000 -1.239230 -26.865909 0.373234 4.146078 -2.167536 0.937374 0.474730 -0.860768 0.199794 1.062098 -0.557563 0.344528 0.000000 0.000000 0.000000 0.647921 -1.025929 0.262430 -1.765649 1.802131 2.967058 17.921918 24.414936 -13.032528 0.000000 0.000000 0.000000 1.242046 -0.983899 0.218225 -0.554824 2.611093 3.878073 -1.785963 0.300334 -0.044988 -53.265941 -1.520403 -49.181761 -9.813607 -86.780641 -9.367627 0.000000 0.000000 0.000000 2.071231 -0.585286 0.154093 -1.037725 -10.132907 9.594753 0.840331 1.962672 0.163426 -65.731739 64.473188 81.598952 -13.659194 85.883769 13.710894 0.000000 0.000000 0.000000 
0.433135 87.788284 0.285416 0.000000 0.000000 0.000000 -2.163539 -25.672799 0.524305 -22.989467 25.378157 12.105329 22.781505 7.733563 13.778372 -3.005966 0.618662 -14.653630 1.582915 -0.033449 -2.176219 0.000000 0.000000 0.000000 -2.761180 -24.339972 0.695936 -12.556220 -19.186203 -8.846048 24.464868 -1.088028 -12.880780 -14.467965 -1.701260 10.809773 -0.442826 0.481396 0.160891 0.000000 0.000000 0.000000 -1.223303 -26.825481 0.354456 4.174665 -2.146132 0.913497 0.496928 -0.852240 0.189110 1.069477 -0.558190 0.346548 0.000000 0.000000 0.000000 0.656391 -1.013497 0.256626 -1.804421 1.778992 2.988488 17.857871 24.339321 -12.946810 0.000000 0.000000 0.000000 1.252954 -0.971625 0.209855 -0.552630 2.567101 4.089768 -1.788575 0.296597 -0.076474 -53.337432 -1.439395 -49.179387 -10.446748 -86.933623 -10.036345 0.000000 0.000000 0.000000 2.080968 -0.571757 0.149516 -1.042494 -10.211344 9.741821 0.837991 1.937886 0.174004 -65.541812 64.494833 81.378528 -14.460323 86.118386 14.499042 0.000000 0.000000 0.000000 
